<?xml version="1.0" standalone="no"?>
<!DOCTYPE svg PUBLIC "-//W3C//DTD SVG 20010904//EN"
 "http://www.w3.org/TR/2001/REC-SVG-20010904/DTD/svg10.dtd">
<svg version="1.0" xmlns="http://www.w3.org/2000/svg"
 width="600.000000pt" height="302.000000pt" viewBox="0 0 600.000000 302.000000"
 preserveAspectRatio="xMidYMid meet">
<g transform="translate(0.000000,302.000000) scale(0.100000,-0.100000)"
fill="#000000" stroke="none">
<path d="M183 2545 c-13 -23 -5 -80 22 -160 36 -109 102 -188 191 -230 29 -14
59 -25 66 -25 8 0 18 -4 23 -9 6 -5 48 -21 95 -35 1061 -319 1542 -472 1658
-527 155 -75 264 -205 303 -364 10 -38 18 -58 18 -44 2 47 -43 162 -88 229
-53 79 -129 146 -213 187 -91 44 -396 145 -913 303 -110 33 -256 78 -325 100
-69 21 -181 55 -250 75 -383 112 -466 157 -525 280 -24 52 -55 161 -55 199 0
18 1 18 19 2 43 -39 269 -133 451 -187 41 -12 109 -32 150 -44 41 -13 116 -35
165 -50 148 -44 339 -103 540 -167 105 -33 222 -71 260 -83 39 -12 120 -37
180 -55 251 -74 386 -134 497 -218 129 -98 217 -215 267 -357 50 -140 63 -317
36 -466 -21 -111 -30 -139 -79 -239 -33 -68 -58 -102 -126 -170 -136 -136
-275 -198 -461 -207 -96 -5 -118 -2 -227 26 -182 47 -449 138 -517 176 -94 53
-207 177 -230 253 -3 12 -11 20 -16 16 -18 -11 79 -157 140 -212 42 -38 122
-86 181 -109 62 -25 335 -113 424 -138 155 -43 328 -38 465 15 219 85 372 256
442 495 22 72 24 99 23 265 0 174 -2 190 -27 267 -93 280 -290 457 -632 567
-60 19 -198 63 -305 96 -107 34 -213 67 -235 75 -22 7 -94 30 -160 50 -66 20
-160 50 -210 66 -49 15 -218 66 -375 113 -157 46 -315 96 -352 110 -105 40
-276 124 -280 138 -3 9 -8 6 -15 -7z"/>
<path d="M5835 2530 c-19 -31 -252 -123 -491 -195 -104 -31 -207 -62 -229 -70
-22 -7 -80 -26 -130 -40 -49 -15 -162 -49 -250 -77 -88 -27 -203 -63 -255 -79
-52 -16 -122 -38 -155 -49 -33 -11 -112 -36 -175 -55 -346 -109 -446 -151
-561 -236 -111 -82 -180 -167 -244 -301 -19 -41 -35 -86 -34 -99 0 -17 6 -9
18 26 42 117 102 208 197 301 113 111 268 185 579 279 66 20 174 54 240 75 66
21 188 60 270 85 83 26 168 52 190 60 22 7 81 25 130 40 93 28 250 77 320 99
22 8 76 23 120 36 200 56 493 178 480 200 -8 13 -12 13 -20 0z"/>
<path d="M5851 2452 c-17 -80 -64 -178 -101 -213 -76 -73 -134 -97 -520 -214
-157 -47 -310 -94 -340 -105 -111 -37 -278 -89 -385 -120 -60 -17 -119 -35
-130 -40 -11 -5 -103 -34 -205 -65 -357 -108 -391 -122 -480 -202 -113 -100
-147 -152 -181 -283 -18 -69 -20 -101 -16 -180 12 -203 94 -350 246 -440 144
-84 252 -90 461 -23 69 22 161 50 205 63 44 12 187 57 318 99 130 43 237 73
237 67 0 -6 -19 -48 -41 -93 -32 -65 -56 -97 -107 -144 -91 -83 -173 -120
-472 -208 -58 -18 -130 -39 -160 -49 -41 -13 -90 -17 -195 -17 -128 0 -147 3
-220 29 -44 15 -98 40 -120 55 -22 15 -56 39 -76 52 -66 46 -146 147 -196 247
-26 53 -49 99 -50 101 -2 2 -6 2 -9 -2 -9 -9 48 -126 96 -196 141 -209 386
-328 629 -306 119 10 495 119 638 185 128 60 225 161 277 291 14 36 26 68 26
71 0 13 -48 1 -210 -53 -175 -58 -567 -178 -670 -206 -77 -21 -229 -13 -292
14 -92 41 -180 120 -235 213 -71 119 -88 339 -36 480 26 70 75 141 141 202
103 94 149 115 502 222 63 19 219 67 345 107 127 39 358 111 515 159 537 166
581 181 654 224 65 38 146 145 146 191 0 10 7 32 16 50 8 18 14 48 12 67 -3
29 -5 25 -17 -30z"/>
<path d="M340 1989 c0 -10 31 -24 100 -44 206 -60 305 -89 435 -130 152 -48
343 -106 425 -129 25 -7 162 -50 305 -96 143 -45 274 -86 290 -90 61 -16 215
-70 262 -92 26 -12 73 -47 104 -78 60 -60 96 -134 106 -222 3 -26 10 -45 15
-42 22 14 -21 158 -69 231 -57 86 -124 123 -362 199 -113 36 -260 83 -326 104
-66 21 -176 55 -245 75 -69 21 -150 45 -180 55 -30 11 -147 47 -260 80 -113
34 -257 78 -320 97 -63 19 -133 39 -155 46 -22 6 -59 19 -82 29 -24 9 -43 13
-43 7z"/>
<path d="M5675 1991 c-5 -10 -52 -26 -250 -86 -141 -43 -476 -149 -555 -175
-30 -11 -100 -32 -155 -48 -55 -16 -179 -54 -275 -85 -96 -30 -249 -78 -340
-105 -207 -64 -245 -81 -309 -138 -69 -62 -97 -120 -125 -256 -8 -36 18 -52
54 -34 33 17 436 145 740 236 58 17 155 47 215 65 61 18 209 63 330 99 437
132 488 153 587 244 66 61 118 157 128 233 3 26 3 46 -2 43 -4 -3 -8 0 -8 5 0
13 -27 14 -35 2z m31 -53 c-17 -111 -127 -247 -246 -304 -76 -36 -158 -65
-370 -128 -85 -26 -191 -58 -235 -71 -44 -14 -161 -49 -260 -79 -99 -30 -254
-78 -345 -106 -91 -28 -210 -64 -265 -80 -90 -26 -240 -76 -289 -96 -17 -7
-18 -4 -11 42 13 89 44 154 100 208 28 28 65 58 81 66 16 8 31 18 34 21 5 6
57 23 205 67 186 56 444 136 475 147 35 13 88 29 390 120 85 26 164 51 175 55
11 5 92 31 180 59 88 27 207 65 265 84 58 19 109 35 114 36 5 0 6 -18 2 -41z"/>
<path d="M324 1932 c22 -81 51 -135 105 -194 106 -116 104 -115 1131 -423 117
-35 247 -73 265 -78 11 -3 58 -19 105 -35 47 -16 132 -44 190 -62 58 -17 133
-43 168 -57 66 -26 98 -26 40 1 -51 23 -116 44 -843 270 -77 24 -241 74 -365
111 -481 144 -539 164 -582 200 -13 11 -36 28 -51 38 -47 30 -115 134 -138
208 -24 77 -44 95 -25 21z"/>
<path d="M2420 1953 c-92 -14 -92 -14 -80 -29 7 -8 18 -14 25 -14 29 0 189
-71 237 -106 73 -52 146 -128 195 -204 64 -98 78 -112 43 -43 -84 164 -224
281 -414 348 -66 22 -68 24 -40 32 16 4 67 7 114 7 166 0 299 -67 405 -204 25
-32 59 -87 75 -122 17 -35 30 -55 30 -45 0 50 -104 209 -178 270 -104 87 -272
132 -412 110z"/>
<path d="M3465 1943 c-38 -5 -128 -34 -122 -39 2 -2 39 5 82 16 78 20 173 24
230 10 l30 -7 -28 -11 c-16 -7 -33 -12 -38 -12 -26 0 -180 -83 -225 -122 -105
-89 -197 -224 -246 -364 -29 -80 -62 -223 -54 -231 7 -7 10 2 35 112 68 297
237 498 495 590 50 18 91 37 91 41 0 19 -158 29 -250 17z"/>
<path d="M3229 1846 c-30 -24 -72 -62 -92 -86 -44 -52 -127 -214 -117 -230 4
-6 16 14 28 47 12 32 35 80 52 106 31 50 123 146 175 184 17 12 26 22 20 22
-5 1 -35 -19 -66 -43z"/>
<path d="M2870 1477 c0 -10 5 -27 11 -39 6 -11 21 -54 34 -96 13 -43 24 -68
24 -56 1 11 -6 43 -14 72 -20 67 -55 142 -55 119z"/>
<path d="M595 1439 c-3 -4 -12 -6 -19 -3 -11 4 -11 -3 -1 -38 40 -145 102
-232 213 -297 68 -40 149 -70 367 -136 132 -40 278 -85 485 -150 421 -133 432
-135 523 -111 69 19 129 65 166 126 42 71 81 54 -574 257 -115 36 -221 69
-235 73 -107 34 -668 202 -716 214 -34 9 -94 29 -133 45 -39 16 -73 25 -76 20z
m85 -40 c30 -11 141 -45 245 -75 105 -30 210 -61 235 -68 25 -8 86 -26 135
-41 50 -15 115 -35 145 -46 49 -16 157 -49 440 -136 143 -43 411 -133 431
-144 29 -15 23 -32 -26 -87 -100 -111 -167 -117 -435 -37 -102 30 -203 61
-225 69 -42 14 -216 69 -420 131 -349 107 -413 134 -492 212 -56 54 -109 151
-120 219 -6 34 -4 37 13 30 10 -5 44 -17 74 -27z"/>
<path d="M5420 1435 c-33 -19 -323 -112 -745 -237 -101 -30 -331 -101 -545
-168 -102 -32 -238 -75 -303 -95 -65 -20 -121 -43 -123 -50 -9 -22 33 -91 73
-122 100 -79 179 -89 328 -43 55 17 163 49 240 71 77 22 174 51 215 65 41 14
148 47 238 75 420 128 485 157 570 248 42 45 102 169 101 207 0 22 -6 14 -23
-36 -28 -82 -61 -133 -120 -188 -72 -67 -175 -110 -531 -217 -66 -20 -178 -54
-250 -76 -136 -42 -289 -88 -315 -95 -8 -2 -53 -16 -100 -31 -47 -15 -117 -28
-157 -31 -62 -3 -79 0 -122 22 -57 28 -74 43 -116 99 -24 32 -26 40 -14 48 24
15 401 135 869 275 47 14 123 38 170 53 79 26 142 45 280 85 315 92 410 126
410 146 0 12 0 12 -30 -5z"/>
<path d="M3289 1268 c-22 -52 -19 -380 4 -433 10 -22 15 -29 12 -15 -28 121
-31 355 -6 439 14 45 7 50 -10 9z"/>
<path d="M2943 1230 c3 -19 13 -114 22 -210 17 -182 39 -301 29 -160 -6 85
-32 333 -39 369 -7 38 -18 39 -12 1z"/>
<path d="M3086 1152 c-2 -4 -7 -55 -11 -112 -6 -101 -28 -282 -42 -345 l-7
-30 -7 35 c-5 26 -7 18 -5 -30 1 -69 16 -84 28 -28 7 31 38 298 53 451 6 62 4
79 -9 59z"/>
<path d="M2560 1068 c-3 -31 -1 -53 3 -49 5 5 7 30 5 57 l-3 49 -5 -57z"/>
<path d="M2542 951 c-7 -21 -12 -45 -12 -52 0 -8 -17 -48 -37 -89 -77 -154
-214 -254 -365 -268 -112 -11 -111 -11 -528 118 -52 16 -156 48 -230 71 -74
23 -167 54 -207 69 -71 27 -72 28 -79 8 -3 -11 -1 -25 4 -30 8 -8 9 -4 5 12
-5 20 -3 22 13 16 69 -29 427 -146 494 -162 8 -2 83 -24 165 -49 235 -73 246
-75 312 -75 106 0 236 53 316 129 80 74 144 194 162 299 9 53 2 54 -13 3z"/>
</g>
</svg>
